Coordinates
version=1
nRows=16
nColumns=22
inDegrees=yes

Units are S.I. units (second, meters, Newtons, ...)
If the header above contains a line with 'inDegrees', this indicates whether rotational values are in degrees (yes) or radians (no).

endheader
time	pelvis_tilt	pelvis_list	pelvis_rotation	pelvis_tx	pelvis_ty	pelvis_tz	hip_flexion_r	hip_adduction_r	hip_rotation_r	knee_angle_r	ankle_angle_r	subtalar_angle_r	hip_flexion_l	hip_adduction_l	hip_rotation_l	knee_angle_l	ankle_angle_l	subtalar_angle_l	lumbar_extension	lumbar_bending	lumbar_rotation
      1.45000000	     -5.78823451	     -3.03595238	      8.18843630	      0.96270663	      1.00876958	      0.22374191	     13.57378533	      1.44182505	    -10.12689014	    -20.48372005	      8.71402108	     -1.64686755	     11.41137600	     -7.53353075	     -2.66116157	    -14.86539920	      7.81272118	      4.76471245	     -5.45981569	      3.00756046	     -3.50207769
      1.46000000	     -6.05355217	     -3.09559520	      8.59298213	      0.96021660	      1.00842284	      0.22400152	     13.98859346	      1.39557947	    -10.50904276	    -20.48022693	      8.61176905	     -1.75208171	     12.28429500	     -7.51282524	     -2.26152708	    -15.45563826	      7.72148693	      4.92099691	     -5.49797279	      3.24767928	     -3.52892282
      1.47000000	     -6.31050930	     -3.15679844	      9.01292995	      0.95768435	      1.00807444	      0.22419772	     14.39699652	      1.34065258	    -10.90326285	    -20.47883281	      8.51127287	     -1.86528661	     13.16314694	     -7.47767268	     -1.86737701	    -16.05975096	      7.63887094	      5.08596663	     -5.54863408	      3.48723143	     -3.56006009
      1.48000000	     -6.55923639	     -3.21329349	      9.44179035	      0.95514523	      1.00773279	      0.22432122	     14.79514652	      1.27085520	    -11.30018384	    -20.47869042	      8.41688957	     -1.98880955	     14.03502722	     -7.42172370	     -1.49383064	    -16.66567218	      7.57933361	      5.26864302	     -5.60584811	      3.72154888	     -3.58978880
      1.49000000	     -6.78568101	     -3.26115618	      9.88334643	      0.95261162	      1.00742246	      0.22439480	     15.16703925	      1.18654367	    -11.70494921	    -20.48002261	      8.32778356	     -2.11182822	     14.87291064	     -7.34418622	     -1.13611880	    -17.25655825	      7.55256258	      5.46631310	     -5.68438206	      3.93875104	     -3.62533227
      1.50000000	     -6.99632090	     -3.29644028	     10.32556812	      0.95008980	      1.00713440	      0.22440760	     15.52234292	      1.08305998	    -12.10084746	    -20.48915730	      8.24416226	     -2.24525183	     15.67659284	     -7.24336684	     -0.81314228	    -17.83676958	      7.58096485	      5.69984149	     -5.77261548	      4.13997874	     -3.66090952
      1.51000000	     -7.18515942	     -3.31327852	     10.75875346	      0.94759610	      1.00688878	      0.22438634	     15.85211583	      0.96137380	    -12.47901928	    -20.50340520	      8.16531882	     -2.38946241	     16.42585745	     -7.11959386	     -0.53864663	    -18.39783048	      7.68218128	      5.98168787	     -5.87643605	      4.31310332	     -3.69016119
      1.52000000	     -7.34664997	     -3.30824053	     11.17717605	      0.94513220	      1.00669619	      0.22433165	     16.15181594	      0.81942271	    -12.83536635	    -20.52648651	      8.08959697	     -2.54255313	     17.10884222	     -6.97568943	     -0.32016953	    -18.94616534	      7.87553934	      6.31644896	     -6.00109182	      4.45626761	     -3.71296542
      1.53000000	     -7.48346287	     -3.28118394	     11.56895920	      0.94271932	      1.00656329	      0.22427256	     16.42154087	      0.66460184	    -13.15138374	    -20.55262442	      8.01446973	     -2.70888193	     17.71907857	     -6.81838227	     -0.16960722	    -19.48635006	      8.16666487	      6.71253703	     -6.13821458	      4.56355578	     -3.71578515
      1.54000000	     -7.59431984	     -3.23019634	     11.92399866	      0.94035408	      1.00650097	      0.22421059	     16.66005368	      0.49720787	    -13.42073128	    -20.58087462	      7.93182861	     -2.88865357	     18.25431660	     -6.65296691	     -0.10082163	    -20.03684201	      8.55067496	      7.15604820	     -6.28981373	      4.63691218	     -3.69615929
      1.55000000	     -7.67726122	     -3.15221742	     12.23389170	      0.93805310	      1.00652460	      0.22416043	     16.86147486	      0.31827773	    -13.64042669	    -20.60234670	      7.81908103	     -3.07975362	     18.70923543	     -6.48573552	     -0.14105188	    -20.61415946	      9.00395457	      7.60985674	     -6.45499687	      4.66947159	     -3.64513492
      1.56000000	     -7.72691886	     -3.06182035	     12.51051604	      0.93577826	      1.00661846	      0.22411732	     17.03236375	      0.14312878	    -13.80012900	    -20.63741633	      7.74255611	     -3.25665302	     19.08871408	     -6.32524607	     -0.22145103	    -21.24254643	      9.52579839	      7.91861654	     -6.64019039	      4.68083961	     -3.57672809
      1.57000000	     -7.77016988	     -2.95436770	     12.73896244	      0.93357223	      1.00678148	      0.22409211	     17.18208793	     -0.03442604	    -13.91954053	    -20.64603949	      7.60113983	     -3.46230935	     19.42286915	     -6.17703284	     -0.42788951	    -21.94662806	     10.03085990	      8.17090666	     -6.80693740	      4.65815998	     -3.48072926
      1.58000000	     -7.77883216	     -2.83979622	     12.92732698	      0.93138759	      1.00701711	      0.22408230	     17.30120227	     -0.19977035	    -13.97800940	    -20.66380105	      7.48026372	     -3.63954891	     19.68699538	     -6.04802084	     -0.67720619	    -22.74182392	     10.54025048	      8.21892019	     -6.99210713	      4.62237056	     -3.36114648
      1.59000000	     -7.79731739	     -2.72719437	     13.08490065	      0.92922080	      1.00727547	      0.22408669	     17.42359235	     -0.35513759	    -14.01348219	    -20.65884338	      7.30831244	     -3.87114982	     19.94288562	     -5.94300041	     -1.00627710	    -23.64984795	     10.97241238	      8.15724058	     -7.13950313	      4.56897117	     -3.23767035
      1.60000000	     -7.79134837	     -2.61917702	     13.20678200	      0.92706000	      1.00757600	      0.22410660	     17.52679122	     -0.48938260	    -13.99669971	    -20.65774727	      7.14897090	     -4.07393665	     20.14841140	     -5.86517082	     -1.34338663	    -24.66867536	     11.37645527	      7.95872415	     -7.29048879	      4.51314974	     -3.09900632
